PathFileType	4	(X/Y/Z)	C:\Users\Basilio\Documents\Thesis Gigler\squatting_fais\c3dfiles\038\SLS_front_pre2\markers_experimental.trc
DataRate	CameraRate	NumFrames	NumMarkers	Units	OrigDataRate	OrigDataStartFrame	OrigNumFrames
200.000000	200.000000	4	61	mm	200.000000	855	1369
Frame#	Time	FHD			LBHD			RBHD			C7			T10			CLAV			LSHO			LUUPA			LMUPA			LDUPA			LLEP			LMEP			LUL			LRFIN			RSHO			RUPA1			RMUPA			RDUPA			RLEP			RMEP			RRAD			RUL			RUFIN			LASI			RASI			USACR			LSACR			RSACR			LTHI1			LTHI2			LTHI3			LTHI4			LLFC			LMFC			LTIB1			LTIB2			LTIB3			LTIB4			LLMAL			LMMAL			LHEE			LMT1			LMT2			LMT5			RTHI			RTHI2			RTHI3			RTHI4			RLFC			RMFC			RTIB1			RTIB2			RTIB3			RTIB4			RLMAL			RMMAL			RHEE			RMT1			RMT2			RMT5			LRAD			
		X1	Y1	Z1	X2	Y2	Z2	X3	Y3	Z3	X4	Y4	Z4	X5	Y5	Z5	X6	Y6	Z6	X7	Y7	Z7	X8	Y8	Z8	X9	Y9	Z9	X10	Y10	Z10	X11	Y11	Z11	X12	Y12	Z12	X13	Y13	Z13	X14	Y14	Z14	X15	Y15	Z15	X16	Y16	Z16	X17	Y17	Z17	X18	Y18	Z18	X19	Y19	Z19	X20	Y20	Z20	X21	Y21	Z21	X22	Y22	Z22	X23	Y23	Z23	X24	Y24	Z24	X25	Y25	Z25	X26	Y26	Z26	X27	Y27	Z27	X28	Y28	Z28	X29	Y29	Z29	X30	Y30	Z30	X31	Y31	Z31	X32	Y32	Z32	X33	Y33	Z33	X34	Y34	Z34	X35	Y35	Z35	X36	Y36	Z36	X37	Y37	Z37	X38	Y38	Z38	X39	Y39	Z39	X40	Y40	Z40	X41	Y41	Z41	X42	Y42	Z42	X43	Y43	Z43	X44	Y44	Z44	X45	Y45	Z45	X46	Y46	Z46	X47	Y47	Z47	X48	Y48	Z48	X49	Y49	Z49	X50	Y50	Z50	X51	Y51	Z51	X52	Y52	Z52	X53	Y53	Z53	X54	Y54	Z54	X55	Y55	Z55	X56	Y56	Z56	X57	Y57	Z57	X58	Y58	Z58	X59	Y59	Z59	X60	Y60	Z60	X61	Y61	Z61	

856	4.275	-151.9974212646485	1447.272094726563	-1121.075927734375	-309.5990295410157	1402.538330078125	-1181.989379882813	-302.6589355468751	1390.996704101563	-1037.026733398438	-382.8079833984376	1260.982543945313	-1098.975830078125	-486.500701904297	1000.47802734375	-1058.690673828125	-247.0142364501954	1196.535278320313	-1107.705200195313	-307.0349731445313	1255.98876953125	-1239.4189453125	-147.4285888671875	1210.02587890625	-1370.090942382813	-121.0780487060547	1242.046508789063	-1340.082153320313	-78.49594879150392	1218.80126953125	-1375.109741210938	-16.47496032714844	1223.764526367188	-1374.53466796875	-3.71294665336609	1150.692749023438	-1353.963745117188	278.5750732421876	1246.104370117188	-1340.020263671875	338.8921508789063	1262.2109375	-1248.61083984375	-281.0969848632813	1259.965942382813	-975.5301513671877	-126.7369689941407	1243.5439453125	-859.8432617187502	-92.35406494140626	1248.915283203125	-894.1293945312502	-58.13161087036134	1237.843872070313	-844.9922485351565	14.59562778472901	1233.215698242188	-836.414245605469	19.34915351867676	1155.712646484375	-852.1143798828127	294.3957214355469	1225.165893554688	-900.7541503906252	301.0560913085938	1240.807861328125	-832.2072753906252	374.0411682128907	1259.533081054688	-903.050964355469	-338.7264099121094	802.4207763671877	-1142.396240234375	-375.9714355468751	824.7362060546877	-896.268981933594	-522.9647216796876	827.5858154296877	-1036.5810546875	-527.1850585937501	794.3597412109377	-1063.6552734375	-534.5996093750001	797.0146484375002	-1007.953857421875	-186.1519317626953	560.1697998046876	-1202.736938476563	-107.8138732910157	524.2115478515626	-1201.358642578125	-77.59455871582033	555.8408813476564	-1176.4345703125	-95.52261352539064	465.8391113281251	-1186.431518554688	-67.05117797851564	422.5247802734376	-1171.990600585938	-60.63236618041994	428.8055114746095	-1054.35302734375	-119.9064559936524	265.2759399414063	-1070.681030273438	-181.4871826171875	244.7895202636719	-1133.494873046875	-153.3159332275391	226.2478942871094	-1098.98681640625	-210.8793334960938	177.6100158691407	-1059.949462890625	-356.3278808593751	111.4178237915039	-1076.5849609375	-314.6497192382813	124.7559432983399	-1001.409912109375	-416.8338623046876	94.80307006835939	-1016.155212402344	-215.0534210205079	44.41826248168946	-1016.590270996094	-209.3739318847657	44.31124877929688	-1067.2900390625	-256.5120544433594	33.81314086914063	-1111.719116210938	-247.1247863769532	618.0644531250001	-835.705017089844	-180.8041381835938	617.5662231445314	-837.6916503906252	-163.2254943847657	645.1129150390626	-843.610290527344	-132.2954864501953	547.0305786132814	-853.5107421875002	-12.62506866455078	483.6378479003907	-867.7010498046877	-14.50449085235596	483.7211303710939	-989.004089355469	153.1051025390625	408.0857543945314	-896.6629028320315	166.294921875	297.1650695800782	-862.3740234375002	193.1949310302735	334.4710388183594	-872.2351684570315	239.1412658691407	312.6014709472657	-901.7332763671877	295.5866699218751	183.534408569336	-872.3188476562502	307.8609619140626	215.9073181152344	-952.8394775390627	311.3975524902344	106.5100860595703	-938.6003417968752	422.4743041992189	293.0905151367188	-918.4458618164065	414.7640991210939	291.9302978515626	-870.6109619140627	407.9316711425782	244.4657592773438	-829.4062500000002	268.2591552734376	1227.708618164063	-1270.988037109375	
857	4.28	-151.8963317871094	1447.237060546875	-1121.015869140625	-309.3935852050782	1402.459716796875	-1181.89208984375	-302.5132141113282	1391.037841796875	-1036.975463867188	-382.6816406250001	1261.02099609375	-1098.911010742188	-486.4343261718751	1000.565185546875	-1058.585693359375	-246.8854980468751	1196.5556640625	-1107.645141601563	-306.9813537597657	1256.059448242188	-1239.387084960938	-147.4010009765625	1209.717407226563	-1369.671264648438	-121.0597610473633	1242.12109375	-1340.099609375	-78.51960754394533	1218.788452148438	-1375.058715820313	-16.49371719360352	1223.716796875	-1374.53466796875	-3.804146766662599	1150.710083007813	-1353.874633789063	278.5645751953126	1246.068969726563	-1340.08935546875	338.9205627441407	1262.155639648438	-1248.671752929688	-281.0231628417969	1259.987182617188	-975.463073730469	-126.5562896728516	1243.634765625	-859.8793945312502	-92.3496551513672	1248.974609375	-894.202087402344	-57.99610137939455	1237.851928710938	-845.0455322265627	14.68721771240235	1233.254272460938	-836.467468261719	19.46929550170899	1155.755493164063	-852.1587524414065	294.5375976562501	1225.134399414063	-900.7907714843752	301.2191467285157	1240.844848632813	-832.249694824219	374.1505737304688	1259.595458984375	-903.0391235351565	-338.6268615722657	802.4786376953127	-1142.342895507813	-376.1527709960938	824.7430419921877	-896.1409301757815	-522.9480590820314	827.5899047851565	-1036.567504882813	-527.1689453125001	794.3803710937502	-1063.674926757813	-534.6290283203126	797.1248779296877	-1007.961059570313	-186.1562652587891	560.2348022460939	-1202.76708984375	-107.874267578125	524.2619628906251	-1201.271728515625	-77.62173461914064	555.9860229492189	-1176.3720703125	-95.54415130615236	465.8554992675782	-1186.36865234375	-67.04650115966798	422.5975952148439	-1171.916870117188	-60.65900802612306	428.8651123046876	-1054.268310546875	-119.9601974487305	265.3471984863282	-1070.68994140625	-181.513916015625	244.8564147949219	-1133.518310546875	-153.3104248046875	226.2386932373047	-1098.902587890625	-210.8411254882813	177.7004089355469	-1059.958984375	-356.3015441894532	111.3980941772461	-1076.637817382813	-314.6659545898438	124.7535247802735	-1001.443786621094	-416.8316650390626	94.80802154541017	-1016.158203125	-215.0904541015626	44.44026184082032	-1016.610046386719	-209.409896850586	44.2298812866211	-1067.30078125	-256.4807128906251	33.81568908691407	-1111.727783203125	-247.2465972900391	618.0197753906251	-835.6741333007815	-180.8946075439453	617.5113525390626	-837.7478637695315	-163.3755798339844	645.0051879882814	-843.6633911132815	-132.3893585205078	546.9895019531251	-853.5755615234377	-12.73117351531983	483.6451721191407	-867.713562011719	-14.64863014221192	483.6794433593751	-989.0899047851565	152.8766784667969	408.0142517089845	-896.7095947265627	165.9742584228516	296.9687500000001	-862.4941406250002	192.9543457031251	334.2964172363282	-872.3494873046877	238.9654541015626	312.4805297851563	-901.9497070312502	295.4006042480469	183.3163757324219	-872.5625000000002	307.6100463867188	215.7350616455079	-953.1260375976565	311.6808166503907	106.0062561035157	-938.9197998046877	422.2218017578126	292.8302612304688	-918.4744873046877	414.4855041503907	291.7162780761719	-870.7211914062502	407.720184326172	244.1480102539063	-829.5594482421877	268.2640380859376	1227.785888671875	-1271.088623046875	
858	4.285	-151.5935211181641	1446.994873046875	-1120.877075195313	-309.3084716796876	1402.58447265625	-1181.810668945313	-302.4149169921876	1391.083740234375	-1036.87939453125	-382.6552429199219	1261.12353515625	-1098.802856445313	-486.3825988769532	1000.655090332031	-1058.500854492188	-246.8215637207032	1196.569702148438	-1107.566040039063	-306.9013671875001	1256.059814453125	-1239.305541992188	-147.3964996337891	1209.708129882813	-1369.679443359375	-121.0876617431641	1242.150756835938	-1340.0712890625	-78.51140594482423	1218.782104492188	-1374.998046875	-16.47750663757325	1223.74169921875	-1374.501342773438	-3.782668590545655	1150.63720703125	-1353.859497070313	278.5960083007813	1246.019653320313	-1340.174194335938	338.9541015625001	1262.211791992188	-1248.764526367188	-280.9372863769532	1260.01708984375	-975.3982543945315	-126.269271850586	1243.286743164063	-859.8464965820315	-92.02834320068361	1248.587524414063	-894.1326293945315	-57.89124679565431	1237.948120117188	-845.1015625000002	14.81717300415039	1233.278686523438	-836.540466308594	19.59303665161133	1155.814697265625	-852.2207641601565	294.6620483398438	1225.28564453125	-900.8040161132815	301.2337341308594	1240.911254882813	-832.270446777344	374.3062744140626	1259.615234375	-903.037780761719	-338.5444946289063	802.5205688476565	-1142.234252929688	-376.2608642578126	824.7529296875002	-895.9075317382815	-522.9913940429689	827.6709594726565	-1036.543212890625	-527.8625488281251	794.4858398437502	-1063.872680664063	-534.6793212890626	797.2030029296877	-1008.003173828125	-186.0912628173828	560.2939453125001	-1202.644287109375	-107.8977203369141	524.3502807617189	-1201.146728515625	-77.65527343750001	556.0300292968751	-1176.179077148438	-95.53761291503908	465.9633789062501	-1186.251098632813	-66.96949768066408	422.7741699218751	-1171.793701171875	-60.734432220459	428.969696044922	-1054.137817382813	-120.0077667236328	265.3773803710938	-1070.623291015625	-181.5716094970703	244.8701324462891	-1133.4482421875	-153.2986602783203	226.265853881836	-1098.846069335938	-210.7463073730469	177.4287109375	-1060.007202148438	-356.1132812500001	111.2431793212891	-1076.70263671875	-314.6652526855469	124.7966613769532	-1001.47412109375	-416.8363037109376	94.79388427734376	-1016.149780273438	-215.0939178466797	44.4760856628418	-1016.606689453125	-209.3796081542969	44.32013702392579	-1067.360473632813	-256.4295959472657	33.74463653564454	-1111.739379882813	-247.3292388916016	617.9170532226564	-835.7475585937502	-180.9898986816407	617.4700317382814	-837.7181396484377	-163.4038238525391	645.0027465820314	-843.6267700195315	-132.5004425048828	546.9713134765626	-853.5758056640627	-12.75551128387452	483.5162353515626	-867.8083496093752	-14.73330974578858	483.6805419921876	-989.1661376953127	152.7499237060547	407.8687744140626	-896.8111572265627	165.7357177734375	296.8475646972657	-862.6108398437502	192.7576599121094	334.1484985351563	-872.422790527344	238.7504425048829	312.2425842285157	-902.1123657226565	295.1321105957032	183.1663818359375	-872.6921386718752	307.2980957031251	215.5626678466797	-953.2869262695315	308.8401489257813	107.364990234375	-938.9080200195315	422.0132446289064	292.6513977050782	-918.6127929687502	414.5606384277345	291.2927246093751	-870.5501098632815	407.4658813476564	243.8888702392579	-829.7346801757815	268.2635803222657	1227.784057617188	-1271.087158203125	
859	4.29	-151.4370880126953	1446.977416992188	-1120.845825195313	-309.1740112304688	1402.612060546875	-1181.711059570313	-302.2287902832032	1391.181518554688	-1036.744140625	-382.5659179687501	1261.181518554688	-1098.716186523438	-486.3352661132814	1000.773132324219	-1058.374389648438	-246.8905639648438	1196.59619140625	-1107.460327148438	-306.8971252441407	1256.110107421875	-1239.185668945313	-147.3360595703125	1209.692260742188	-1369.6240234375	-121.1191635131836	1242.11669921875	-1340.081787109375	-78.59984588623048	1218.871215820313	-1374.957153320313	-16.43862533569336	1223.802734375	-1374.491088867188	-3.801089048385621	1150.7607421875	-1353.756225585938	278.6079711914063	1246.054931640625	-1340.213012695313	339.0188903808594	1262.15478515625	-1248.802124023438	-280.9028625488282	1260.033325195313	-975.2920532226565	-126.1663131713867	1243.347778320313	-859.846374511719	-91.97046661376955	1248.635131835938	-894.2122192382815	-57.77953338623048	1238.003173828125	-845.0864257812502	14.92210960388184	1233.349975585938	-836.5795898437502	19.70411491394043	1155.910888671875	-852.2691650390627	294.7109680175782	1225.260498046875	-900.8424072265627	301.3245849609376	1240.949462890625	-832.253601074219	374.4410400390626	1259.744506835938	-903.0562744140627	-338.4652709960938	802.5627441406252	-1142.181640625	-376.4066467285157	824.7546386718752	-895.873229980469	-522.9805908203126	827.7559814453127	-1036.578125	-527.0916137695314	794.4187011718752	-1063.702880859375	-534.7446899414064	797.2904052734377	-1007.994873046875	-186.1042785644532	560.4091796875001	-1202.632690429688	-107.8373794555664	524.4041137695314	-1201.006713867188	-77.57928466796876	556.0738525390626	-1176.049560546875	-95.47642517089845	466.0625305175782	-1186.102661132813	-66.8677444458008	422.9140625000001	-1171.64111328125	-60.79661941528322	429.0732421875001	-1054.028442382813	-120.0006942749024	265.4593505859376	-1070.504272460938	-181.5106658935547	244.9508972167969	-1133.426147460938	-153.4209594726563	226.4661102294922	-1098.920776367188	-210.8760681152344	177.7168731689453	-1059.91162109375	-356.3288269042969	111.5146865844727	-1076.69921875	-314.6625061035157	124.7677383422852	-1001.555236816406	-416.8395385742189	94.81133270263673	-1016.192810058594	-215.1545867919922	44.59721374511719	-1016.61376953125	-209.4176177978516	44.31811904907227	-1067.369384765625	-256.4762573242188	33.77124404907227	-1111.751586914063	-247.4071197509766	617.9502563476564	-835.7126464843752	-181.0724639892578	617.4312133789064	-837.7313232421877	-163.5151672363282	644.9418945312501	-843.6488037109377	-132.5366516113282	546.9597778320314	-853.6677246093752	-12.84664154052735	483.5359191894532	-867.884704589844	-14.82640075683594	483.6619873046876	-989.2346801757815	152.56640625	407.7315063476564	-896.8997192382815	165.518051147461	296.6984863281251	-862.7566528320315	192.5172576904297	334.0644531250001	-872.5830688476565	238.5649719238282	312.0447387695313	-902.278747558594	294.9016418457032	182.9359741210938	-872.859313964844	307.0473632812501	215.3818511962891	-953.4898681640627	306.6918945312501	108.3145980834961	-939.1082153320315	421.7692260742189	292.4203491210938	-918.7957763671877	414.5498046875001	290.9364929199219	-870.5849609375002	407.2073059082032	243.5116424560547	-829.987976074219	268.3219909667969	1227.736206054688	-1271.102661132813	
